# xmcd
#
# Track frame offsets: 
#        150
#        10600
#        21401
#        35903
#        49651
#        60370
#        76026
#        89678
#        98009
#        108956
#        120338
#        133393
#
# Disc length: 1953 seconds
#
# Revision: 0
# Processed by: cddbd v1.5.2PL0 Copyright (c) Steve Scherf et al.
# Submitted via: ExactAudioCopy v1.0b4
#
DISCID=91079f0c
DTITLE=Eddie Kirkland - The Way It Was (LP)
DYEAR=1983
DGENRE=Blues
TTITLE0=Saturday Night Stomp
TTITLE1=I'm Gonna Forget You
TTITLE2=Down On My Knees
TTITLE3=Don't Take My Heart
TTITLE4=Daddy Please Don't Cry
TTITLE5=Have Mercy On Me
TTITLE6=I Tried
TTITLE7=Man Of Stone
TTITLE8=Train Gone Done
TTITLE9=I'm Going To Keep Loving You
TTITLE10=Something's Gone Wrong In My Life
TTITLE11=Baby You Know It's True
EXTD=
EXTT0=
EXTT1=
EXTT2=
EXTT3=
EXTT4=
EXTT5=
EXTT6=
EXTT7=
EXTT8=
EXTT9=
EXTT10=
EXTT11=
PLAYORDER=
